<svg width="64" height="64" viewBox="0 0 64 64" fill="none" xmlns="http://www.w3.org/2000/svg">
    <g clip-path="url(#clip0_1_74)">
        <path
            d="M15.9476 5.81641L4.07215 5.81815C1.82284 5.81815 0 7.64157 0 9.89088V21.3975C0 22.5862 0.519564 23.716 1.42196 24.4899L39.5828 57.1997C40.3212 57.8321 41.2614 58.18 42.2336 58.18H54.1091C56.3584 58.18 58.1818 56.3566 58.1818 54.1073V42.599C58.1818 41.4103 57.6623 40.2804 56.7599 39.5066L18.599 6.79735C17.8607 6.16433 16.9204 5.81641 15.9476 5.81641Z"
            fill="#F08D4B"/>
        <path
            d="M14.5193 5.81641H4.07273C1.82342 5.81641 0 7.63982 0 9.88913V22.9818C0 23.1744 0.013964 23.367 0.040727 23.5578L5.31782 60.5015C5.60465 62.5082 7.32276 63.9982 9.34982 63.9982H25.0228C27.2727 63.9982 29.0961 62.1742 29.0956 59.9243L29.0909 41.3859C29.0909 40.9483 29.0205 40.5137 28.882 40.0989L18.3825 8.60099C17.8281 6.93815 16.2723 5.81641 14.5193 5.81641Z"
            fill="url(#paint0_linear_1_74)"/>
        <path
            d="M59.9275 0H25.9592C24.3301 0 22.8575 0.971054 22.2157 2.46807L6.14767 39.9587C5.93065 40.4655 5.81836 41.0118 5.81836 41.5633V59.9273C5.81836 62.1766 7.64178 64 9.89109 64H27.8571C28.6617 64 29.4483 63.7615 30.118 63.3146L62.1867 41.9113C63.3189 41.1561 63.9984 39.8848 63.9984 38.5239L64.0002 4.07273C64.0002 1.82342 62.1768 0 59.9275 0Z"
            fill="url(#paint1_linear_1_74)"/>
        <path d="M26 39H8V62H26V39Z" fill="black"/>
        <path d="M11 57H17V59H11V57Z" fill="white"/>
        <path d="M62 2H36V41H62V2Z" fill="black"/>
        <path d="M40 6H50V9H40V6Z" fill="white"/>
        <line x1="23.7253" y1="42.0385" x2="37.7253" y2="38.0385" stroke="black" stroke-width="2"/>
        <rect x="21" y="40" width="4" height="4" fill="white"/>
        <rect x="37" y="36" width="4" height="4" fill="white"/>
    </g>
    <defs>
        <linearGradient id="paint0_linear_1_74" x1="-0.717383" y1="7.61946" x2="24.1455" y2="61.2456"
                        gradientUnits="userSpaceOnUse">
            <stop offset="0.1" stop-color="#E91DFC"/>
            <stop offset="0.59" stop-color="#FE2833"/>
        </linearGradient>
        <linearGradient id="paint1_linear_1_74" x1="4.22243" y1="60.0186" x2="62.9273" y2="1.31316"
                        gradientUnits="userSpaceOnUse">
            <stop offset="0.21" stop-color="#F0D74B"/>
            <stop offset="0.7" stop-color="#00FFB7"/>
        </linearGradient>
        <clipPath id="clip0_1_74">
            <rect width="64" height="64" fill="white"/>
        </clipPath>
    </defs>
</svg>
